<svg width="120" height="158" xmlns="http://www.w3.org/2000/svg"><path d="M120 158H.468v-22.906l42.924-39.527c12.71-11.862 21.013-20.083 24.912-24.664 3.899-4.581 6.706-8.825 8.421-12.732 1.716-3.906 2.573-7.955 2.573-12.145 0-6.25-1.89-10.903-5.672-13.957-3.782-3.054-8.83-4.581-15.146-4.581-6.628 0-13.06 1.385-19.299 4.155-6.238 2.77-12.748 6.712-19.532 11.826L0 22.267c8.421-6.535 15.4-11.151 20.936-13.85 5.536-2.7 11.579-4.777 18.128-6.233C45.614.728 52.944 0 61.053 0 71.735 0 81.17 1.776 89.357 5.327c8.187 3.551 14.542 8.523 19.064 14.916 4.522 6.392 6.784 13.708 6.784 21.947 0 7.174-1.384 13.904-4.152 20.19-2.768 6.286-7.057 12.731-12.866 19.337-5.809 6.605-16.043 16.016-30.702 28.233l-21.988 18.858v1.491H120V158z" fill="#F7F8FB" fill-rule="evenodd"/></svg>