<svg width="118" height="161" xmlns="http://www.w3.org/2000/svg"><path d="M112.986 37.277c0 9.784-3.226 18.104-9.678 24.96C96.856 69.091 87.8 73.804 76.14 76.375v.643c13.76 1.57 24.176 5.41 31.25 11.515 7.073 6.106 10.61 14.336 10.61 24.69 0 15.069-5.947 26.798-17.84 35.19C88.267 156.804 71.282 161 49.206 161c-18.501 0-34.903-2.82-49.206-8.462v-28.173c6.607 3.071 13.875 5.57 21.804 7.499 7.93 1.928 15.78 2.892 23.554 2.892 11.893 0 20.677-1.857 26.351-5.57 5.675-3.714 8.512-9.677 8.512-17.89 0-7.355-3.264-12.568-9.794-15.639-6.53-3.07-16.946-4.606-31.25-4.606H26.236V65.664h13.176c13.215 0 22.873-1.589 28.975-4.767 6.103-3.178 9.154-8.623 9.154-16.335 0-11.855-8.085-17.782-24.253-17.782-5.597 0-11.291.857-17.082 2.57-5.792 1.715-12.224 4.678-19.298 8.892L.233 15.425C15.78 5.142 34.32 0 55.852 0c17.645 0 31.58 3.285 41.801 9.855 10.222 6.57 15.333 15.71 15.333 27.422z" fill="#F7F8FB" fill-rule="evenodd"/></svg>