<svg width="447" height="346" xmlns="http://www.w3.org/2000/svg"><g fill="none" fill-rule="evenodd"><path d="M135.393 40.746H122.94v-2.05h12.452v2.05zm23.872 0h-12.451v-2.05h12.451v2.05zm23.872 0h-12.45v-2.05h12.45v2.05zm23.873 0h-12.451v-2.05h12.45v2.05zm23.872 0h-12.45v-2.05h12.45v2.05zm23.873 0h-12.451v-2.05h12.45v2.05zm23.872 0h-12.45v-2.05h12.45v2.05zm23.873 0h-12.451v-2.05h12.45v2.05zm23.872 0h-12.451v-2.05h12.451v2.05zm23.873 0h-12.452v-2.05h12.452v2.05zm23.872 0h-12.451v-2.05h12.451v2.05zm23.872 0h-12.45v-2.05h12.45v2.05zm26 0h-12.45v-2.05h12.45v2.05zm-356.724 263H54.814v-2.05h12.451v2.05zm23.872 0h-12.45v-2.05h12.45v2.05zm23.873 0h-12.451v-2.05h12.45v2.05zm23.872 0h-12.45v-2.05h12.45v2.05zm23.873 0h-12.451v-2.05h12.45v2.05zm23.872 0h-12.45v-2.05h12.45v2.05zm23.873 0h-12.451v-2.05h12.45v2.05zm23.872 0h-12.451v-2.05h12.451v2.05zm23.873 0h-12.452v-2.05h12.452v2.05zm23.872 0h-12.451v-2.05h12.451v2.05zm23.872 0h-12.45v-2.05h12.45v2.05zM41.695 123.393v-12.451h2.05v12.45h-2.05zm0 23.872v-12.451h2.05v12.451h-2.05zm0 23.873v-12.452h2.05v12.452h-2.05zm0 23.872v-12.45h2.05v12.451h-2.05zm0 23.873V206.43h2.05v12.452h-2.05zm0 23.872v-12.451h2.05v12.451h-2.05zm0 23.872v-12.45h2.05v12.45h-2.05zm0 23.873v-12.451h2.05v12.45h-2.05zm382-218.107V59.942h2.05v12.45h-2.05zm0 23.872V83.814h2.05v12.451h-2.05zm0 23.873v-12.452h2.05v12.452h-2.05zm0 23.872v-12.45h2.05v12.451h-2.05zm0 23.873V155.43h2.05v12.452h-2.05zm0 23.872v-12.451h2.05v12.451h-2.05zm0 23.872v-12.45h2.05v12.45h-2.05zm0 23.873v-12.451h2.05v12.45h-2.05z" fill="#152844"/><path d="M.021 61.068c0 12.829 10.687 23.227 23.87 23.227 13.182 0 23.869-10.398 23.869-23.227 0-12.828-10.687-23.227-23.87-23.227-2.709 0-5.302.46-7.73 1.27 5.372-29.98 29.395-49.312 7.125-33.4C-1.409 23.353-.005 60.357.023 61.036l-.002.031zm52 0c0 12.829 10.687 23.227 23.87 23.227 13.183 0 23.87-10.398 23.87-23.227 0-12.828-10.687-23.227-23.87-23.227-2.71 0-5.303.46-7.731 1.27 5.372-29.98 29.395-49.312 7.125-33.4-24.694 17.643-23.29 54.647-23.262 55.326l-.002.031zm394.716 223.191l.001-.032c0-12.828-10.686-23.227-23.869-23.227S399 271.399 399 284.227c0 12.829 10.688 23.228 23.87 23.228 2.709 0 5.302-.46 7.729-1.27-5.37 29.979-29.394 49.312-7.125 33.4 24.695-17.644 23.29-54.649 23.263-55.326zm-76.867 23.195c2.709 0 5.302-.46 7.73-1.269-5.372 29.979-29.396 49.312-7.126 33.4 24.695-17.644 23.291-54.649 23.263-55.326l.001-.032c0-12.828-10.686-23.227-23.869-23.227S346 271.399 346 284.227c0 12.829 10.688 23.227 23.87 23.227z" fill="#849EB0"/></g></svg>