<svg width="124" height="26" xmlns="http://www.w3.org/2000/svg"><g fill="none" fill-rule="evenodd" opacity=".801"><rect stroke="#FFF" x=".5" y=".5" width="123" height="25" rx="4"/><path d="M23 6.334C23 4.582 21.419 3 19.667 3H6.333C4.581 3 3 4.582 3 6.334v13.332C3 21.418 4.581 23 6.334 23H13v-7.556h-2.444v-3.333H13v-1.299c0-2.24 1.682-4.256 3.75-4.256h2.694v3.333H16.75c-.295 0-.639.358-.639.894v1.328h3.333v3.333h-3.333V23h3.556C21.419 23 23 21.418 23 19.666V6.334z" fill="#FFF" fill-rule="nonzero"/><text font-family="OpenSans-Semibold, Open Sans" font-size="14" font-weight="500" fill="#FFF"><tspan x="31" y="18">Поділитися</tspan></text></g></svg>