<svg width="23" height="16" xmlns="http://www.w3.org/2000/svg"><path d="M21.838 6.859H1.149C.515 6.859 0 7.367 0 7.994c0 .626.515 1.135 1.15 1.135h20.688c.632 0 1.15-.509 1.15-1.135 0-.627-.518-1.135-1.15-1.135zM1.15 2.318h20.688c.632 0 1.15-.508 1.15-1.135 0-.626-.518-1.135-1.15-1.135H1.149C.515.048 0 .557 0 1.183c0 .627.515 1.135 1.15 1.135zM21.838 13.67H1.149C.515 13.67 0 14.18 0 14.803c0 .625.515 1.135 1.15 1.135h20.688c.632 0 1.15-.51 1.15-1.135 0-.624-.518-1.135-1.15-1.135z" fill="#FEFEFE" fill-rule="evenodd"/></svg>