<svg width="243" height="77" xmlns="http://www.w3.org/2000/svg" xmlns:xlink="http://www.w3.org/1999/xlink"><defs><rect id="a" width="72.085" height="76.8" rx="6.4"/><mask id="d" x="0" y="0" width="72.085" height="76.8" fill="#fff"><use xlink:href="#a"/></mask><rect id="b" x="85" width="72.085" height="76.8" rx="6.4"/><mask id="e" x="0" y="0" width="72.085" height="76.8" fill="#fff"><use xlink:href="#b"/></mask><rect id="c" x="170" width="72.085" height="76.8" rx="6.4"/><mask id="f" x="0" y="0" width="72.085" height="76.8" fill="#fff"><use xlink:href="#c"/></mask></defs><g fill="none" fill-rule="evenodd"><use stroke="#CAD3DF" mask="url(#d)" stroke-width="1.6" fill="#FFF" stroke-dasharray="1.6" xlink:href="#a"/><use stroke="#CAD3DF" mask="url(#e)" stroke-width="1.6" fill="#FFF" stroke-dasharray="1.6" xlink:href="#b"/><use stroke="#CAD3DF" mask="url(#f)" stroke-width="1.6" fill="#FFF" stroke-dasharray="1.6" xlink:href="#c"/><rect fill="#5883ED" x="15" y="22" width="41.191" height="33.28" rx="1.6"/><ellipse fill="#FFB44F" cx="40.436" cy="38.564" rx="6.436" ry="7.564"/><ellipse fill="#CE4747" cx="30.436" cy="38.564" rx="6.436" ry="7.564"/><path d="M35.287 43.078C34.48 41.814 34 40.242 34 38.538c0-1.702.479-3.274 1.287-4.538.809 1.264 1.287 2.836 1.287 4.539 0 1.703-.478 3.275-1.287 4.539z" fill="#D6765F"/><rect fill="#EFEFEF" x="100" y="22" width="41.191" height="33.28" rx="1.6"/><path d="M100 46v7.475a1.6 1.6 0 0 0 1.602 1.601h37.987c.885 0 1.602-.712 1.602-1.601V46H100z" fill="#FFB44F"/><path d="M101.602 22c-.885 0-1.602.712-1.602 1.602v7.474h41.191v-7.474A1.6 1.6 0 0 0 139.59 22h-37.987z" fill="#4287CB"/><rect fill="#EFEFEF" x="186" y="22" width="41.191" height="33.28" rx="1.6"/><path d="M202 55.615h24.154c.878 0 1.59-.713 1.59-1.602V42L202 55.615z" fill="#FFB44F"/><rect fill="#D4D4D4" x="191" y="29" width="30.894" height="4.538" rx="2.269"/></g></svg>