<svg width="246" height="169" xmlns="http://www.w3.org/2000/svg" xmlns:xlink="http://www.w3.org/1999/xlink"><defs><rect id="a" width="71.765" height="73.922" rx="9.6"/><mask id="f" x="0" y="0" width="71.765" height="73.922" fill="#fff"><use xlink:href="#a"/></mask><rect id="b" width="71.765" height="73.922" rx="9.6"/><mask id="g" x="0" y="0" width="71.765" height="73.922" fill="#fff"><use xlink:href="#b"/></mask><rect id="c" width="71.765" height="73.922" rx="9.6"/><mask id="h" x="0" y="0" width="71.765" height="73.922" fill="#fff"><use xlink:href="#c"/></mask><rect id="d" width="71.765" height="73.922" rx="9.6"/><mask id="i" x="0" y="0" width="71.765" height="73.922" fill="#fff"><use xlink:href="#d"/></mask><rect id="e" width="71.765" height="73.922" rx="9.6"/><mask id="j" x="0" y="0" width="71.765" height="73.922" fill="#fff"><use xlink:href="#e"/></mask><rect id="l" width="71.765" height="73.922" rx="9.6"/><filter x="-12.5%" y="-8.1%" width="125.1%" height="124.4%" filterUnits="objectBoundingBox" id="k"><feOffset dy="3" in="SourceAlpha" result="shadowOffsetOuter1"/><feGaussianBlur stdDeviation="2.5" in="shadowOffsetOuter1" result="shadowBlurOuter1"/><feComposite in="shadowBlurOuter1" in2="SourceAlpha" operator="out" result="shadowBlurOuter1"/><feColorMatrix values="0 0 0 0 0.462745098 0 0 0 0 0.588235294 0 0 0 0 0.658823529 0 0 0 0.111526268 0" in="shadowBlurOuter1"/></filter><path id="m" d="M0 30.186h35.834V.188H0z"/><path id="o" d="M28.018 27.55V.174H0V27.55z"/><path id="q" d="M13.302.157H.04v8.476h13.262V.157z"/><path id="s" d="M0 43.442h35.823V0H0z"/><path id="u" d="M33.836.081H.201v33.974h33.635V.08z"/></defs><g fill="none" fill-rule="evenodd"><use mask="url(#f)" xlink:href="#a" fill="#FFF" stroke="#CAD3DF" stroke-dasharray="2.4" stroke-width="2.4"/><use mask="url(#g)" xlink:href="#b" transform="translate(0 87.122)" fill="#FFF" stroke="#CAD3DF" stroke-dasharray="2.4" stroke-width="2.4"/><use mask="url(#h)" xlink:href="#c" transform="translate(84.58)" fill="#FFF" stroke="#CAD3DF" stroke-dasharray="2.4" stroke-width="2.4"/><use mask="url(#i)" xlink:href="#d" transform="translate(84.58 87.122)" fill="#FFF" stroke="#CAD3DF" stroke-dasharray="2.4" stroke-width="2.4"/><use mask="url(#j)" xlink:href="#e" transform="translate(169.16)" fill="#FFF" stroke="#CAD3DF" stroke-dasharray="2.4" stroke-width="2.4"/><g transform="translate(169.16 87.122)"><use fill="#000" filter="url(#k)" xlink:href="#l"/><use fill="#FFF" xlink:href="#l"/><rect stroke="#D6E1E9" stroke-width="1.2" x=".6" y=".6" width="70.565" height="72.722" rx="9.6"/></g><path fill="#873834" d="M106.763 140.455h31.075v-3.11h-31.075zm14.205-3.111h2.664v-14.221h-2.664zm-.888-14.221h4.44v-2.62h-4.44z"/><path fill="#873834" d="M106.763 120.504h31.075v-3.111h-31.075zm24.12 16.84h2.664v-14.221h-2.664z"/><path fill="#873834" d="M129.995 123.123h4.44v-2.62h-4.44zm-18.941 14.221h2.664v-14.221h-2.664z"/><path fill="#873834" d="M110.166 123.123h4.44v-2.62h-4.44zM122.3 102.25l-18.497 15.143h36.995z"/><path fill="#C9928F" d="M110.166 115.28h24.268l-12.134-9.935z"/><path d="M122.737 112.04c0-.196-.044-.345-.128-.453-.084-.107-.235-.213-.45-.316-.525-.232-.908-.466-1.147-.703-.24-.238-.36-.586-.36-1.048 0-.416.128-.758.381-1.027.254-.27.593-.427 1.016-.471v-.78h.53v.795c.4.063.718.246.952.545.233.302.347.683.34 1.149l-.006.019h-1.106c0-.269-.046-.47-.14-.6a.435.435 0 0 0-.374-.198c-.158 0-.274.054-.35.162a.708.708 0 0 0-.113.414c0 .17.04.307.122.413.08.106.232.213.455.322.517.243.896.486 1.139.73.241.242.363.588.363 1.038 0 .429-.122.774-.366 1.035-.243.26-.57.414-.983.461v.743h-.53v-.747a1.726 1.726 0 0 1-1.075-.5c-.285-.287-.423-.707-.414-1.26l.01-.023h1.098c0 .305.06.526.18.66s.277.2.468.2c.16 0 .282-.051.364-.154a.635.635 0 0 0 .124-.406" fill="#873834"/><path fill="#76AA60" d="M188.384 53.25h35.834V33.12h-35.834z"/><path fill="#90C67B" d="M190.467 50.818h31.667V35.553h-31.667z"/><g transform="translate(188.384 23.063)"><path d="M6.05 12.49c0 2.622-1.775 4.748-3.966 4.748v-4.749H6.05zm23.733 0c0 2.622 1.776 4.748 3.968 4.748v-4.749h-3.968zM6.05 28.145c0-2.622-1.775-4.748-3.966-4.748v4.748H6.05zm23.733 0c0-2.622 1.776-4.748 3.968-4.748v4.748h-3.968zM17.917 14.53c2.58 0 4.671 2.504 4.671 5.592 0 3.088-2.091 5.59-4.671 5.59s-4.672-2.502-4.672-5.59 2.092-5.591 4.672-5.591" fill="#76AA60"/><mask id="n" fill="#fff"><use xlink:href="#m"/></mask><path fill="#76AA60" mask="url(#n)" d="M0 9.813h35.834V.188H0z"/><path fill="#90C67B" mask="url(#n)" d="M0 10.274h35.834v-.921H0zm0-2.477h35.834v-.92H0zm0-2.475h35.834V4.4H0zm0-2.477h35.834v-.92H0z"/><path fill="#FFD573" mask="url(#n)" d="M16.258 30.186h3.318V5.545h-3.318z"/><path fill="#F2A900" mask="url(#n)" d="M16.258 10.058h3.318V.188h-3.318z"/></g><path d="M31.583 32.17c-.07-.736-.708-2.885-2.426-5.952-1.718-3.068-.336-4.938 2.288-4.828 2.625.11 2.284-2.01 4.42-2.01s1.796 2.12 4.42 2.01c2.625-.11 4.007 1.76 2.289 4.828-1.718 3.067-2.356 5.216-2.426 5.951-.624 6.522-7.941 6.522-8.565 0" fill="#75AD5F"/><g transform="translate(21.786 30.911)"><mask id="p" fill="#fff"><use xlink:href="#o"/></mask><path d="M14.01.175c7.734 0 14.004 6.128 14.004 13.688 0 7.559.636 13.686-14.005 13.686C-.63 27.55.004 21.422.004 13.863.004 6.303 6.274.175 14.009.175" fill="#75AD5F" mask="url(#p)"/></g><path d="M35.795 31.086c3.877 0 7.385 1.54 9.921 4.027a13.377 13.377 0 0 1 1.357 5.883c0 7.56.636 13.688-14.005 13.688-5.34 0-8.647-.817-10.695-2.22-.673-2.192-.583-4.84-.583-7.69 0-7.56 6.27-13.688 14.005-13.688" fill="#90C67B"/><path d="M30.075 28.888h11.44c.438 0 .796.352.796.783 0 .43-.358.783-.796.783h-11.44a.792.792 0 0 1-.795-.783c0-.43.357-.783.795-.783" fill="#FFD573"/><path d="M30.075 30.454h11.44c.438 0 .796.352.796.783 0 .43-.358.783-.796.783h-11.44a.792.792 0 0 1-.795-.783c0-.43.357-.783.795-.783" fill="#FFD573"/><path d="M34.524 51.305c-.817-.19-1.502-.555-2.051-1.096-.682-.668-1.115-1.616-1.305-2.84l2.47-.261a3.06 3.06 0 0 0 .886 1.64v2.557zm0-6.229c-.93-.34-1.634-.8-2.113-1.384-.575-.706-.865-1.562-.865-2.567 0-1.017.326-1.873.978-2.566.528-.558 1.194-.925 2-1.103v2.272a1.804 1.804 0 0 0-.281.297c-.22.3-.33.63-.33.99 0 .327.1.635.301.915.085.118.188.228.31.327v2.82zm.61 4.1v-3.903a8.617 8.617 0 0 1-.61-.197v-2.819a2.5 2.5 0 0 0 .61.36v-3.225c-.234.078-.437.19-.61.336v-2.272c.195-.043.399-.075.61-.096v-.922h1.37v.922c.284.034.55.085.801.153v2.555a1.788 1.788 0 0 0-.801-.647v3.642c.284.075.551.155.801.24v2.703a3.169 3.169 0 0 0-.801-.332v3.632c.304-.055.57-.163.801-.324V51.2c-.253.07-.52.126-.801.166v1.743h-1.37V51.41a5.677 5.677 0 0 1-.61-.106V48.75c.19.181.394.324.61.426zm2.171-5.874c1.085.365 1.85.81 2.294 1.332.55.642.823 1.466.823 2.474 0 1.123-.345 2.07-1.033 2.84-.533.596-1.229 1.013-2.084 1.253v-2.22c.13-.09.249-.197.356-.321.297-.347.445-.75.445-1.218 0-.417-.126-.773-.374-1.075a1.68 1.68 0 0 0-.427-.36v-2.705zm0-5.789c.638.174 1.17.459 1.596.858.591.557.97 1.301 1.134 2.233l-2.394.308a2.267 2.267 0 0 0-.336-.844v-2.555z" fill="#FFF"/><path d="M40.208 31.403c2.129 2.48 3.178 5.51 2.269 10.26m-2.269-10.26c2.943 1.466 5.108 3.853 6.153 8.576" stroke="#FFD573" stroke-width=".922" stroke-linecap="round" stroke-linejoin="round"/><g transform="translate(28.357 19.223)"><mask id="r" fill="#fff"><use xlink:href="#q"/></mask><path d="M1.362 8.038A35.75 35.75 0 0 0 .8 6.994C-.918 3.927.463 2.057 3.088 2.167c2.624.11 2.284-2.01 4.42-2.01s1.796 2.12 4.42 2.01c.51-.021.972.032 1.374.154-.332.96-.506 1.663-.689 2.111-1.61 3.95-7.213 5.02-11.251 3.606" fill="#90C67B" mask="url(#r)"/></g><g transform="translate(20.504 100.972)"><path d="M10.638 38.561c5.165 0 9.378-2.248 9.378-5.004 0-2.756-4.213-5.004-9.378-5.004-5.166 0-9.38 2.248-9.38 5.004 0 2.756 4.214 5.004 9.38 5.004z" fill="#F2A900"/><mask id="t" fill="#fff"><use xlink:href="#s"/></mask><path fill="#F2A900" mask="url(#t)" d="M1.259 33.557h18.757V31.5H1.26z"/><path d="M10.638 36.504c5.165 0 9.378-2.248 9.378-5.004 0-2.757-4.213-5.004-9.378-5.004-5.166 0-9.38 2.247-9.38 5.004 0 2.756 4.214 5.004 9.38 5.004" fill="#F2A900" mask="url(#t)"/><path d="M10.638 35.532c4.49 0 8.152-1.811 8.152-4.032s-3.662-4.033-8.152-4.033c-4.49 0-8.153 1.812-8.153 4.033 0 2.22 3.662 4.032 8.153 4.032" fill="#FFD573" mask="url(#t)"/><path d="M9.872 33.632c-.492-.062-.904-.182-1.235-.358-.411-.218-.672-.528-.786-.927l1.488-.085a.9.9 0 0 0 .342.42c.061.042.125.081.19.115v.835zm0-2.033c-.56-.111-.984-.262-1.272-.452-.347-.23-.522-.51-.522-.838 0-.332.197-.611.59-.838.317-.182.719-.301 1.204-.36v.742a.93.93 0 0 0-.17.097c-.132.098-.198.206-.198.323 0 .107.06.207.181.299a.95.95 0 0 0 .187.106v.92zm.367 1.338v-1.274a7.893 7.893 0 0 1-.367-.064v-.92c.101.045.224.084.367.117v-1.053a1.554 1.554 0 0 0-.367.11v-.741a5.17 5.17 0 0 1 .367-.032v-.301h.825v.301c.171.011.332.028.483.05v.834a1.194 1.194 0 0 0-.483-.211v1.189c.172.024.332.05.483.078v.882a2.983 2.983 0 0 0-.483-.108v1.185c.183-.018.344-.053.483-.106v.725c-.153.023-.313.04-.483.054v.568h-.825v-.554a6.269 6.269 0 0 1-.367-.034v-.835c.114.06.237.106.367.14zm1.308-1.917c.653.119 1.114.264 1.381.434.331.21.496.478.496.808 0 .366-.208.675-.622.927-.321.194-.74.33-1.255.409v-.725c.078-.03.15-.064.214-.105.179-.113.269-.245.269-.397 0-.136-.076-.253-.226-.351a1.1 1.1 0 0 0-.257-.118v-.882zm0-1.89c.384.057.704.15.961.28.356.182.584.425.683.73l-1.442.1a.62.62 0 0 0-.202-.276v-.834z" fill="#F2A900" mask="url(#t)"/><path d="M16.96 35.897c5.167 0 9.38-2.248 9.38-5.004 0-2.756-4.213-5.004-9.38-5.004-5.165 0-9.378 2.248-9.378 5.004 0 2.756 4.213 5.004 9.379 5.004" fill="#F2A900" mask="url(#t)"/><path fill="#F2A900" mask="url(#t)" d="M7.582 30.893H26.34v-2.057H7.582z"/><path d="M16.96 33.84c5.167 0 9.38-2.248 9.38-5.004 0-2.756-4.213-5.004-9.38-5.004-5.165 0-9.378 2.248-9.378 5.004 0 2.756 4.213 5.004 9.379 5.004" fill="#F2A900" mask="url(#t)"/><path d="M16.96 32.868c4.491 0 8.154-1.811 8.154-4.032 0-2.22-3.663-4.032-8.153-4.032s-8.153 1.811-8.153 4.032c0 2.22 3.663 4.032 8.153 4.032" fill="#FFD573" mask="url(#t)"/><path d="M16.195 30.968c-.492-.062-.904-.181-1.235-.358-.41-.218-.671-.527-.786-.927l1.488-.085c.06.162.176.302.343.42.06.042.124.081.19.116v.834zm0-2.033c-.56-.11-.984-.261-1.272-.452-.346-.23-.522-.51-.522-.838 0-.332.197-.61.59-.837.318-.182.72-.302 1.204-.36v.741a.99.99 0 0 0-.169.097c-.132.098-.198.206-.198.323 0 .107.06.208.18.299a.965.965 0 0 0 .187.107v.92zm.368 1.338v-1.274a7.859 7.859 0 0 1-.368-.064v-.92c.102.045.224.084.368.117V27.08a1.55 1.55 0 0 0-.368.11v-.742a5.58 5.58 0 0 1 .368-.032v-.3h.825v.3c.17.011.331.028.482.05v.834a1.202 1.202 0 0 0-.482-.211v1.189c.171.024.332.05.482.078v.882a2.957 2.957 0 0 0-.482-.108v1.185a1.88 1.88 0 0 0 .482-.106v.725a7.16 7.16 0 0 1-.482.054v.569h-.825v-.555a5.925 5.925 0 0 1-.368-.034v-.834c.115.059.238.105.368.139zm1.307-1.917c.653.119 1.115.264 1.382.434.33.21.496.479.496.808 0 .366-.208.676-.622.927-.322.195-.74.33-1.256.409v-.725c.079-.03.15-.064.215-.105.179-.113.268-.244.268-.397 0-.136-.076-.252-.226-.351a1.094 1.094 0 0 0-.257-.118v-.882zm0-1.89c.384.057.704.15.962.28.356.182.583.425.683.73l-1.442.1a.622.622 0 0 0-.203-.276v-.834z" fill="#F2A900" mask="url(#t)"/><path d="M9.379 31.585c5.166 0 9.379-2.248 9.379-5.005 0-2.756-4.213-5.004-9.379-5.004C4.213 21.576 0 23.824 0 26.58c0 2.757 4.213 5.005 9.379 5.005" fill="#F2A900" mask="url(#t)"/><path fill="#F2A900" mask="url(#t)" d="M0 26.58h18.758v-2.057H0z"/><path d="M9.379 29.528c5.166 0 9.379-2.248 9.379-5.005 0-2.756-4.213-5.004-9.379-5.004C4.213 19.52 0 21.767 0 24.523c0 2.757 4.213 5.005 9.379 5.005" fill="#F2A900" mask="url(#t)"/><path d="M9.379 28.556c4.49 0 8.152-1.812 8.152-4.033 0-2.22-3.662-4.032-8.152-4.032-4.49 0-8.153 1.811-8.153 4.032s3.663 4.033 8.153 4.033" fill="#FFD573" mask="url(#t)"/><path d="M8.613 26.655c-.492-.062-.904-.18-1.235-.358-.41-.218-.671-.527-.786-.927l1.488-.085c.06.162.176.302.343.42.06.043.124.081.19.116v.834zm0-2.033c-.56-.11-.984-.261-1.272-.452-.346-.23-.521-.51-.521-.837 0-.333.196-.612.59-.838.317-.182.718-.302 1.203-.36v.741a1.098 1.098 0 0 0-.169.097c-.132.098-.198.206-.198.323 0 .107.06.208.18.3a.94.94 0 0 0 .187.106v.92zm.368 1.338v-1.274a7.886 7.886 0 0 1-.368-.064v-.92c.102.045.224.084.368.118v-1.053a1.54 1.54 0 0 0-.368.11v-.742a5.16 5.16 0 0 1 .368-.031v-.301h.825v.3c.17.012.332.028.482.05v.834a1.199 1.199 0 0 0-.482-.21v1.188c.17.024.332.05.482.078v.883a2.959 2.959 0 0 0-.482-.109v1.185c.183-.017.344-.053.482-.105v.724a6.721 6.721 0 0 1-.482.054v.57H8.98v-.555a6.077 6.077 0 0 1-.368-.035v-.834c.115.059.237.105.368.139zm1.307-1.917c.653.12 1.115.264 1.382.435.33.21.496.478.496.807 0 .367-.208.676-.623.927-.321.195-.74.33-1.255.409v-.724c.079-.03.15-.065.215-.105.178-.113.268-.245.268-.398 0-.136-.076-.252-.226-.35a1.109 1.109 0 0 0-.257-.118v-.883zm0-1.89c.385.057.704.15.962.28.355.182.583.425.682.73l-1.441.1a.62.62 0 0 0-.203-.276v-.833z" fill="#F2A900" mask="url(#t)"/><path d="M16.09 27.954c5.167 0 9.38-2.248 9.38-5.005 0-2.756-4.213-5.004-9.38-5.004-5.165 0-9.378 2.248-9.378 5.004 0 2.757 4.213 5.005 9.379 5.005" fill="#F2A900" mask="url(#t)"/><path fill="#F2A900" mask="url(#t)" d="M6.712 22.95H25.47v-2.057H6.712z"/><path d="M16.09 25.897c5.167 0 9.38-2.248 9.38-5.005 0-2.756-4.213-5.004-9.38-5.004-5.165 0-9.378 2.248-9.378 5.004 0 2.757 4.213 5.005 9.379 5.005" fill="#F2A900" mask="url(#t)"/><path d="M16.09 24.925c4.49 0 8.154-1.812 8.154-4.033 0-2.22-3.663-4.032-8.153-4.032s-8.153 1.811-8.153 4.032 3.662 4.033 8.153 4.033" fill="#FFD573" mask="url(#t)"/><path d="M15.325 23.024c-.492-.062-.904-.18-1.235-.358-.41-.217-.671-.527-.786-.927l1.488-.084a.9.9 0 0 0 .343.419c.06.043.124.082.19.116v.834zm0-2.033c-.56-.11-.984-.261-1.272-.452-.346-.23-.521-.51-.521-.837 0-.332.196-.612.589-.838.318-.182.719-.301 1.204-.36v.742a.976.976 0 0 0-.169.097c-.133.097-.199.205-.199.323 0 .106.06.207.182.298a.925.925 0 0 0 .186.107v.92zm.368 1.338v-1.274a8.222 8.222 0 0 1-.368-.064v-.92c.102.045.224.084.368.118v-1.053a1.537 1.537 0 0 0-.368.11v-.742c.118-.014.24-.024.368-.031v-.301h.825v.3c.17.012.331.028.482.051v.834a1.2 1.2 0 0 0-.482-.212v1.19c.171.024.332.05.482.078v.882a2.973 2.973 0 0 0-.482-.109v1.186c.183-.018.343-.053.482-.106v.724a6.721 6.721 0 0 1-.482.054v.57h-.825v-.555a6.06 6.06 0 0 1-.368-.035v-.834c.115.06.238.106.368.14zM17 20.413c.653.118 1.114.263 1.382.434.33.21.496.478.496.808 0 .366-.208.675-.623.926-.32.195-.74.331-1.255.41v-.725c.078-.03.15-.065.214-.105.18-.113.27-.245.27-.397 0-.137-.077-.253-.227-.352a1.1 1.1 0 0 0-.257-.117v-.882zm0-1.89c.384.057.704.15.961.28.357.182.584.424.683.729l-1.441.1a.62.62 0 0 0-.203-.275v-.834z" fill="#F2A900" mask="url(#t)"/><path d="M13.212 24.32c5.165 0 9.379-2.247 9.379-5.004 0-2.756-4.214-5.004-9.38-5.004-5.165 0-9.378 2.248-9.378 5.004 0 2.757 4.213 5.005 9.379 5.005" fill="#F2A900" mask="url(#t)"/><path fill="#F2A900" mask="url(#t)" d="M3.833 19.317H22.59v-2.058H3.833z"/><path d="M13.212 22.264c5.165 0 9.379-2.248 9.379-5.005 0-2.756-4.214-5.004-9.38-5.004-5.165 0-9.378 2.248-9.378 5.004 0 2.757 4.213 5.005 9.379 5.005" fill="#F2A900" mask="url(#t)"/><path d="M13.212 21.292c4.49 0 8.153-1.812 8.153-4.033 0-2.22-3.663-4.032-8.153-4.032s-8.153 1.811-8.153 4.032 3.662 4.033 8.153 4.033" fill="#FFD573" mask="url(#t)"/><path d="M12.446 19.391c-.492-.062-.904-.18-1.235-.358-.41-.218-.672-.527-.786-.927l1.488-.085a.9.9 0 0 0 .343.42c.06.043.124.082.19.116v.834zm0-2.033c-.56-.11-.984-.26-1.272-.452-.346-.23-.522-.51-.522-.837 0-.332.197-.612.59-.838.318-.182.719-.302 1.204-.36v.742a.973.973 0 0 0-.17.097c-.131.097-.198.205-.198.323 0 .106.06.207.181.298a.957.957 0 0 0 .187.107v.92zm.368 1.338v-1.274a8.202 8.202 0 0 1-.368-.064v-.92c.101.046.224.084.368.118v-1.053a1.53 1.53 0 0 0-.368.11v-.742a5.16 5.16 0 0 1 .368-.031v-.301h.825v.3c.17.012.331.028.482.05v.835a1.197 1.197 0 0 0-.482-.211V16.7c.17.025.332.05.482.078v.883a2.957 2.957 0 0 0-.482-.109v1.186c.183-.018.343-.054.482-.106v.724a6.708 6.708 0 0 1-.482.054v.57h-.825v-.555a6.077 6.077 0 0 1-.368-.035v-.834c.115.06.237.106.368.14zm1.307-1.917c.653.12 1.114.264 1.382.435.33.21.496.478.496.807 0 .367-.208.676-.623.927-.321.195-.74.331-1.255.41v-.725c.079-.03.15-.065.214-.105.18-.113.269-.245.269-.397 0-.137-.076-.253-.226-.352a1.1 1.1 0 0 0-.257-.117v-.883zm0-1.89c.384.057.704.15.962.281.356.182.583.424.682.729l-1.441.1a.62.62 0 0 0-.203-.275v-.834z" fill="#F2A900" mask="url(#t)"/><path d="M15.61 21.457c5.165 0 9.378-2.248 9.378-5.004 0-2.757-4.213-5.005-9.379-5.005-5.165 0-9.379 2.248-9.379 5.005 0 2.756 4.214 5.004 9.38 5.004" fill="#F2A900" mask="url(#t)"/><path fill="#F2A900" mask="url(#t)" d="M6.23 16.453h18.758v-2.057H6.23z"/><path d="M15.61 19.4c5.165 0 9.378-2.248 9.378-5.004 0-2.757-4.213-5.005-9.379-5.005-5.165 0-9.379 2.248-9.379 5.005 0 2.756 4.214 5.004 9.38 5.004" fill="#F2A900" mask="url(#t)"/><path d="M15.61 18.428c4.49 0 8.152-1.811 8.152-4.032s-3.663-4.033-8.153-4.033-8.152 1.812-8.152 4.033c0 2.22 3.662 4.032 8.152 4.032" fill="#FFD573" mask="url(#t)"/><path d="M14.844 16.527c-.492-.062-.904-.18-1.236-.358-.41-.217-.67-.527-.786-.926l1.489-.085a.9.9 0 0 0 .342.419c.06.043.124.082.19.116v.834zm0-2.033c-.56-.11-.985-.26-1.273-.451-.346-.23-.52-.51-.52-.838 0-.332.196-.611.588-.838.318-.182.72-.301 1.205-.36v.742a.98.98 0 0 0-.17.097c-.132.097-.198.205-.198.323 0 .107.06.207.181.299a.94.94 0 0 0 .187.106v.92zm.368 1.338V14.56a8.161 8.161 0 0 1-.368-.065v-.92c.101.046.224.085.368.118V12.64a1.527 1.527 0 0 0-.368.11v-.741a5.4 5.4 0 0 1 .368-.032v-.3h.824v.3c.171.011.332.028.483.05v.834a1.198 1.198 0 0 0-.483-.211v1.188c.172.025.332.051.483.079v.882a2.933 2.933 0 0 0-.483-.109v1.186c.184-.018.344-.053.483-.106v.724a6.656 6.656 0 0 1-.483.054v.57h-.824v-.555a6.26 6.26 0 0 1-.368-.035v-.834c.114.06.237.106.368.14zm1.307-1.916c.653.119 1.114.264 1.381.434.33.21.496.479.496.808 0 .366-.208.675-.622.927-.322.194-.74.33-1.255.408v-.724c.078-.03.15-.064.214-.105.179-.113.268-.245.268-.397 0-.136-.075-.253-.225-.351a1.092 1.092 0 0 0-.257-.118v-.882zm0-1.89c.384.057.704.15.961.28.356.182.583.424.683.729l-1.442.1a.619.619 0 0 0-.202-.275v-.834z" fill="#F2A900" mask="url(#t)"/><path d="M12.388 18.454c5.166 0 9.379-2.248 9.379-5.005 0-2.756-4.213-5.004-9.38-5.004-5.165 0-9.378 2.248-9.378 5.004 0 2.757 4.213 5.005 9.379 5.005" fill="#F2A900" mask="url(#t)"/><path fill="#F2A900" mask="url(#t)" d="M3.009 13.45h18.758v-2.058H3.009z"/><path d="M12.388 16.396c5.166 0 9.379-2.247 9.379-5.004 0-2.756-4.213-5.004-9.38-5.004-5.165 0-9.378 2.248-9.378 5.004 0 2.757 4.213 5.004 9.379 5.004" fill="#F2A900" mask="url(#t)"/><path d="M12.388 15.425c4.49 0 8.153-1.812 8.153-4.033 0-2.22-3.663-4.032-8.153-4.032s-8.153 1.81-8.153 4.032 3.663 4.033 8.153 4.033" fill="#FFD573" mask="url(#t)"/><path d="M11.622 13.524c-.492-.062-.904-.18-1.235-.358-.41-.218-.671-.527-.786-.927l1.488-.085a.9.9 0 0 0 .343.42c.06.043.124.081.19.116v.834zm0-2.033c-.56-.11-.984-.261-1.272-.452-.346-.23-.521-.51-.521-.837 0-.333.196-.612.589-.838.318-.182.719-.302 1.204-.36v.741a.988.988 0 0 0-.169.097c-.132.098-.198.206-.198.324 0 .106.06.207.18.298a.946.946 0 0 0 .187.107v.92zm.368 1.338v-1.274a8.161 8.161 0 0 1-.368-.064v-.92c.102.045.224.084.368.118V9.636a1.553 1.553 0 0 0-.368.11v-.742a5.4 5.4 0 0 1 .368-.031v-.301h.825v.3c.17.012.331.028.482.05v.834a1.198 1.198 0 0 0-.482-.21v1.188c.17.025.332.05.482.078v.883a2.959 2.959 0 0 0-.482-.109v1.186c.183-.018.344-.054.482-.106v.724c-.152.023-.313.04-.482.054v.57h-.825v-.555a6.068 6.068 0 0 1-.368-.035v-.834c.115.059.237.105.368.139zm1.307-1.917c.653.12 1.115.264 1.382.435.33.21.496.478.496.807 0 .367-.209.676-.623.927-.32.195-.74.33-1.255.409v-.724c.079-.03.15-.065.214-.105.18-.113.269-.245.269-.398 0-.136-.076-.252-.226-.35a1.095 1.095 0 0 0-.257-.118v-.883zm0-1.89c.384.057.705.15.962.28.356.182.583.425.682.73l-1.441.1a.62.62 0 0 0-.203-.276v-.833z" fill="#F2A900" mask="url(#t)"/><path d="M10.052 15.679c5.165 0 9.379-2.248 9.379-5.004 0-2.757-4.214-5.005-9.38-5.005-5.165 0-9.378 2.248-9.378 5.005 0 2.756 4.213 5.004 9.379 5.004" fill="#F2A900" mask="url(#t)"/><path fill="#F2A900" mask="url(#t)" d="M.673 10.675H19.43V8.618H.673z"/><path d="M10.052 13.622c5.165 0 9.379-2.248 9.379-5.005 0-2.756-4.214-5.004-9.38-5.004-5.165 0-9.378 2.248-9.378 5.004 0 2.757 4.213 5.005 9.379 5.005" fill="#F2A900" mask="url(#t)"/><path d="M10.052 12.65c4.49 0 8.152-1.811 8.152-4.033 0-2.22-3.662-4.032-8.152-4.032-4.49 0-8.153 1.812-8.153 4.032 0 2.222 3.663 4.033 8.153 4.033" fill="#FFD573" mask="url(#t)"/><path d="M9.286 10.75c-.492-.063-.904-.182-1.235-.358-.41-.218-.672-.528-.786-.927l1.488-.085a.9.9 0 0 0 .343.419c.06.043.124.082.19.116v.834zm0-2.034c-.56-.11-.984-.26-1.272-.451-.346-.23-.522-.51-.522-.838 0-.332.197-.611.59-.838.318-.182.719-.301 1.204-.36v.742a1.019 1.019 0 0 0-.17.097c-.131.097-.198.205-.198.323 0 .106.06.207.181.299a.951.951 0 0 0 .187.106v.92zm.368 1.338V8.781a8.202 8.202 0 0 1-.368-.065v-.92c.102.046.224.084.368.118V6.86a1.551 1.551 0 0 0-.368.11v-.742c.118-.014.24-.024.368-.031v-.3h.825v.3c.17.011.331.028.482.05v.834a1.202 1.202 0 0 0-.482-.211v1.188c.17.025.332.051.482.078v.883a2.957 2.957 0 0 0-.482-.109v1.186c.183-.018.343-.053.482-.106v.724a6.592 6.592 0 0 1-.482.054v.57h-.825v-.555a6.269 6.269 0 0 1-.368-.035v-.834c.115.06.237.106.368.14zm1.307-1.917c.653.12 1.114.265 1.381.435.331.21.497.479.497.808 0 .366-.209.675-.623.926-.321.195-.74.331-1.255.41V9.99c.078-.03.15-.064.214-.105.18-.113.269-.245.269-.397 0-.136-.076-.253-.226-.351a1.1 1.1 0 0 0-.257-.118v-.883zm0-1.89c.384.058.704.15.961.281.356.182.584.425.683.729l-1.441.1a.621.621 0 0 0-.203-.275v-.834z" fill="#F2A900" mask="url(#t)"/><path d="M14.294 12.065c5.166 0 9.38-2.248 9.38-5.004 0-2.756-4.214-5.004-9.38-5.004-5.165 0-9.378 2.248-9.378 5.004 0 2.756 4.213 5.004 9.378 5.004" fill="#F2A900" mask="url(#t)"/><path fill="#F2A900" mask="url(#t)" d="M4.915 7.061h18.758V5.004H4.915z"/><path d="M14.294 10.008c5.166 0 9.38-2.248 9.38-5.004C23.673 2.248 19.46 0 14.293 0 9.13 0 4.916 2.248 4.916 5.004c0 2.756 4.213 5.004 9.378 5.004" fill="#F2A900" mask="url(#t)"/><path d="M14.294 9.037c4.49 0 8.153-1.812 8.153-4.033 0-2.22-3.662-4.032-8.153-4.032-4.49 0-8.152 1.811-8.152 4.032s3.662 4.033 8.152 4.033" fill="#FFD573" mask="url(#t)"/><path d="M13.529 7.136c-.493-.062-.905-.181-1.236-.358-.41-.218-.671-.527-.786-.927l1.489-.085a.9.9 0 0 0 .342.42c.06.043.124.081.19.116v.834zm0-2.033c-.56-.11-.984-.261-1.273-.452-.346-.23-.521-.51-.521-.837 0-.333.196-.612.59-.838.317-.182.718-.302 1.204-.36v.741a.973.973 0 0 0-.17.097c-.132.098-.198.206-.198.323 0 .107.06.208.18.3a.94.94 0 0 0 .188.106v.92zm.367 1.338V5.167a8.546 8.546 0 0 1-.367-.064v-.92c.101.045.224.084.367.117V3.248a1.543 1.543 0 0 0-.367.11v-.742a5.4 5.4 0 0 1 .367-.031v-.301h.825v.3c.171.012.332.028.483.05v.834a1.201 1.201 0 0 0-.483-.21v1.188c.171.024.332.05.483.078v.883a2.97 2.97 0 0 0-.483-.11v1.186a1.88 1.88 0 0 0 .483-.106v.725a6.727 6.727 0 0 1-.483.054v.569h-.825V7.17a6.068 6.068 0 0 1-.367-.034v-.834c.114.059.237.105.367.139zm1.308-1.917c.653.12 1.114.264 1.381.435.33.209.496.478.496.807 0 .367-.208.676-.622.927-.322.195-.74.33-1.255.409v-.725a1.18 1.18 0 0 0 .214-.104c.179-.113.268-.245.268-.398 0-.136-.075-.252-.225-.35a1.1 1.1 0 0 0-.257-.118v-.883zm0-1.89c.384.057.704.15.961.28.356.182.584.425.683.73l-1.442.1a.622.622 0 0 0-.202-.276v-.833zm11.24 40.808c5.166 0 9.379-4.751 9.379-10.577s-4.213-10.577-9.379-10.577c-5.166 0-9.379 4.751-9.379 10.577s4.213 10.577 9.38 10.577" fill="#F2A900" mask="url(#t)"/><path d="M26.444 41.388c4.162 0 7.558-3.828 7.558-8.523 0-4.694-3.396-8.523-7.558-8.523-4.163 0-7.558 3.829-7.558 8.523 0 4.695 3.395 8.523 7.558 8.523" fill="#FFD573" mask="url(#t)"/><path d="M25.678 37.37a2.457 2.457 0 0 1-1.235-.755c-.41-.461-.671-1.115-.786-1.96l1.489-.18c.06.343.174.639.341.887.061.09.125.173.191.245v1.764zm0-4.296c-.56-.234-.984-.552-1.272-.955-.346-.487-.521-1.077-.521-1.77 0-.703.196-1.293.59-1.771a2.221 2.221 0 0 1 1.203-.76v1.566a1.24 1.24 0 0 0-.187 1.52c.052.081.115.157.187.225v1.945zm.368 2.827V33.21a4.728 4.728 0 0 1-.368-.135V31.13c.102.095.225.178.368.249v-2.225a1.075 1.075 0 0 0-.368.231v-1.567c.118-.03.24-.052.368-.066v-.636h.825v.636c.17.023.332.058.483.106v1.762a1.119 1.119 0 0 0-.483-.447v2.513c.171.052.332.107.483.165v1.866a1.773 1.773 0 0 0-.483-.23v2.506a1.13 1.13 0 0 0 .483-.224v1.53a3.39 3.39 0 0 1-.483.115v1.203h-.825v-1.172a3.006 3.006 0 0 1-.368-.073v-1.764a1.4 1.4 0 0 0 .368.294zm1.308-4.051c.653.252 1.114.558 1.38.918.331.444.497 1.012.497 1.707 0 .775-.208 1.429-.623 1.96-.321.411-.74.698-1.254.864v-1.531c.078-.062.149-.137.213-.222.18-.24.27-.518.27-.84 0-.288-.077-.533-.227-.742a1.061 1.061 0 0 0-.256-.248V31.85zm0-3.993c.384.12.704.316.96.591.356.384.584.898.683 1.54l-1.441.213a1.696 1.696 0 0 0-.202-.582v-1.762z" fill="#F2A900" mask="url(#t)"/></g><g transform="translate(104.468 21.888)"><mask id="v" fill="#fff"><use xlink:href="#u"/></mask><path d="M5.235.081h23.567c2.77 0 5.034 2.288 5.034 5.085V28.97c0 2.797-2.265 5.085-5.034 5.085H5.235C2.465 34.055.2 31.767.2 28.97V5.166C.2 2.369 2.466.08 5.235.08" fill="#B2DAED" mask="url(#v)"/></g><path d="M110.383 23.652h22.206c2.227 0 4.048 1.84 4.048 4.09v22.43c0 2.248-1.82 4.088-4.048 4.088h-22.206c-2.227 0-4.048-1.84-4.048-4.089v-22.43c0-2.249 1.821-4.089 4.048-4.089" fill="#7AB2CC"/><path d="M110.383 23.214h11.103v.877h-11.103c-.993 0-1.897.41-2.552 1.072a3.658 3.658 0 0 0-1.062 2.579V50.17c0 1.004.406 1.916 1.062 2.578a3.585 3.585 0 0 0 2.552 1.073h11.103v.876h-11.103a4.447 4.447 0 0 1-3.166-1.33 4.537 4.537 0 0 1-1.316-3.197V27.74c0-1.245.504-2.377 1.316-3.197a4.446 4.446 0 0 1 3.166-1.33zm11.103 0h11.103c1.233 0 2.354.51 3.166 1.33a4.535 4.535 0 0 1 1.316 3.198V50.17a4.536 4.536 0 0 1-1.316 3.198 4.447 4.447 0 0 1-3.166 1.33h-11.103v-.877h11.103c.994 0 1.897-.411 2.553-1.073a3.658 3.658 0 0 0 1.062-2.578V27.74a3.659 3.659 0 0 0-1.062-2.578 3.585 3.585 0 0 0-2.553-1.072h-11.103v-.877z" fill="#68A2BD"/><path d="M118.917 46.36a7.587 7.587 0 0 1-4.144-6.774 7.587 7.587 0 0 1 4.144-6.774v1.742a6.073 6.073 0 0 0-2.606 4.278h2.606v1.507h-2.606a6.071 6.071 0 0 0 2.606 4.279v1.742zm3.351-14.346c1.205 0 2.344.288 3.353.798v1.742a5.934 5.934 0 0 0-2.606-.986v5.264h2.606v1.507h-2.606v5.264a5.93 5.93 0 0 0 2.606-.985v1.742a7.407 7.407 0 0 1-3.353.797 7.404 7.404 0 0 1-3.351-.797v-1.742a5.93 5.93 0 0 0 2.605.985V40.34h-2.605v-1.507h2.605v-5.264a5.934 5.934 0 0 0-2.605.986v-1.742a7.406 7.406 0 0 1 3.351-.798zm3.353.798a7.588 7.588 0 0 1 4.144 6.774 7.588 7.588 0 0 1-4.144 6.774v-1.742a6.071 6.071 0 0 0 2.606-4.278h-2.606v-1.508h2.605a6.072 6.072 0 0 0-2.605-4.278v-1.742z" fill="#68A2BD"/><path d="M118.134 45.73a7.587 7.587 0 0 1-4.144-6.774c0-2.09.84-3.984 2.195-5.354a7.526 7.526 0 0 1 1.95-1.42v1.742a6.07 6.07 0 0 0-2.606 4.278h2.605v1.508h-2.605a6.071 6.071 0 0 0 2.605 4.278v1.742zm3.352-14.345c1.205 0 2.344.287 3.352.797v1.742a5.936 5.936 0 0 0-2.606-.985v5.264h2.606v1.507h-2.606v5.264a5.933 5.933 0 0 0 2.606-.986v1.742a7.407 7.407 0 0 1-3.352.798 7.407 7.407 0 0 1-3.352-.798v-1.742a5.93 5.93 0 0 0 2.606.986V39.71h-2.606v-1.507h2.606v-5.264a5.934 5.934 0 0 0-2.606.985v-1.742a7.406 7.406 0 0 1 3.352-.797zm3.352.797a7.533 7.533 0 0 1 1.949 1.42 7.589 7.589 0 0 1 2.195 5.354 7.59 7.59 0 0 1-2.195 5.354 7.533 7.533 0 0 1-1.949 1.42v-1.742a6.071 6.071 0 0 0 2.606-4.278h-2.606v-1.507h2.606a6.071 6.071 0 0 0-2.606-4.279v-1.742z" fill="#B2DAED"/><path d="M118.11 32.627a7.205 7.205 0 0 0-3.74 6.33 7.203 7.203 0 0 0 3.74 6.329v-.858a6.458 6.458 0 0 1-2.957-4.671l-.054-.43h3.01v-.742h-3.01l.053-.43a6.457 6.457 0 0 1 2.957-4.67v-.858zm3.376-.86c-1.194 0-2.35.3-3.377.86v.857a6.31 6.31 0 0 1 2.585-.926l.425-.053v6.08h-3.01v.742h3.01v6.08l-.425-.053a6.31 6.31 0 0 1-2.585-.926v.858c1.028.56 2.183.859 3.377.859s2.35-.3 3.377-.86v-.857c-.78.492-1.66.81-2.584.926l-.426.053v-6.08h3.01v-.742h-3.01v-6.08l.426.053a6.31 6.31 0 0 1 2.584.926v-.857a7.045 7.045 0 0 0-3.377-.86zm3.377 13.519a7.203 7.203 0 0 0 3.74-6.33 7.202 7.202 0 0 0-3.74-6.33v.858a6.458 6.458 0 0 1 2.957 4.671l.053.43h-3.01v.742h3.01l-.053.43a6.458 6.458 0 0 1-2.957 4.67v.859z" fill="#FFF"/><path d="M104.044 28.54h4.035v5.208h-4.035a.778.778 0 0 1-.772-.78V29.32c0-.429.347-.78.772-.78m0 15.624h4.035v5.208h-4.035a.778.778 0 0 1-.772-.78v-3.648c0-.43.347-.78.772-.78" fill="#7AB2CC"/><path d="M104.41 29.125h3.13v4.039h-3.13a.603.603 0 0 1-.599-.605v-2.83c0-.332.27-.604.599-.604m0 15.624h3.13v4.039h-3.13a.603.603 0 0 1-.599-.605v-2.83c0-.333.27-.604.599-.604m22.683-12.071c1.977 0 3.59-1.629 3.59-3.626 0-1.997-1.613-3.626-3.59-3.626-1.978 0-3.59 1.629-3.59 3.626 0 1.997 1.612 3.626 3.59 3.626" fill="#B2DAED"/><path d="M126.97 25.892c0-.069.054-.124.12-.124.067 0 .12.055.12.124v6.32a.122.122 0 0 1-.12.124.122.122 0 0 1-.12-.124v-6.32z" fill="#FFF"/><path d="M128.048 26.04a.122.122 0 0 1 .156-.074.123.123 0 0 1 .074.158l-2.14 5.94a.121.121 0 0 1-.157.073.123.123 0 0 1-.073-.157l2.14-5.94z" fill="#FFF"/><path d="M128.278 31.98a.122.122 0 1 1-.23.084l-2.14-5.94a.123.123 0 0 1 .073-.158.122.122 0 0 1 .156.074l2.14 5.94z" fill="#FFF"/><path d="M129.01 26.552a.12.12 0 0 1 .172-.016.124.124 0 0 1 .016.174l-4.023 4.842a.121.121 0 0 1-.172.015.124.124 0 0 1-.015-.173l4.023-4.842z" fill="#FFF"/><path d="M129.742 27.365a.12.12 0 0 1 .166.045.123.123 0 0 1-.045.168l-5.42 3.16a.122.122 0 0 1-.166-.045.124.124 0 0 1 .045-.167l5.42-3.16z" fill="#FFF"/><path d="M130.153 28.382a.123.123 0 0 1 .142.1.124.124 0 0 1-.1.143l-6.163 1.097a.122.122 0 0 1-.14-.1.123.123 0 0 1 .098-.143l6.163-1.097z" fill="#FFF"/><path d="M130.195 29.48a.123.123 0 0 1-.042.242l-6.163-1.098a.123.123 0 0 1-.099-.142.122.122 0 0 1 .141-.1l6.163 1.097z" fill="#FFF"/><path d="M129.864 30.526c.058.034.078.11.044.168a.122.122 0 0 1-.167.045l-5.42-3.16a.124.124 0 0 1-.043-.169.12.12 0 0 1 .166-.045l5.42 3.16z" fill="#FFF"/><path d="M129.198 31.394a.124.124 0 0 1-.016.173.12.12 0 0 1-.171-.015l-4.023-4.842a.124.124 0 0 1 .015-.174.121.121 0 0 1 .172.016l4.023 4.842z" fill="#FFF"/><path d="M127.093 31.574c1.375 0 2.497-1.133 2.497-2.522 0-1.39-1.122-2.523-2.497-2.523-1.376 0-2.497 1.134-2.497 2.523 0 1.39 1.121 2.522 2.497 2.522" fill="#7AB2CC"/><path d="M128.048 26.04a.122.122 0 0 1 .156-.074.123.123 0 0 1 .074.158l-1.07 2.97a.121.121 0 0 1-.157.074.123.123 0 0 1-.073-.158l1.07-2.97z" fill="#FFF"/><path d="M127.093 30.784c.944 0 1.714-.778 1.714-1.732s-.77-1.732-1.714-1.732c-.945 0-1.715.778-1.715 1.732s.77 1.732 1.715 1.732" fill="#FFF"/><g><path d="M184.165 115.795l28.791-11.939c.711-.295 1.502.133 1.758.951l6.188 19.761c.256.818-.116 1.729-.827 2.023l-28.79 11.94c-.712.294-1.503-.134-1.76-.952l-6.186-19.76c-.257-.818.116-1.729.826-2.024" fill="#75AD5F"/><path d="M184.944 116.653l27.888-11.565c.457-.19.966.086 1.13.612l5.866 18.733c.165.526-.074 1.111-.532 1.3l-27.887 11.565c-.458.19-.966-.085-1.131-.611l-5.865-18.733c-.165-.526.074-1.112.531-1.301" fill="#90C67B"/><path fill="#75AD5F" d="M186.767 128.767l31.376-13.01 1.606 5.129-31.376 13.01z"/><path d="M191.284 114.364h30.603c.756 0 1.374.712 1.374 1.581v21.004c0 .87-.618 1.581-1.374 1.581h-30.603c-.756 0-1.374-.71-1.374-1.58v-21.005c0-.87.618-1.58 1.374-1.58" fill="#76AA60"/><path d="M191.764 115.475h29.643c.486 0 .884.457.884 1.017v19.911c0 .56-.398 1.017-.884 1.017h-29.643c-.486 0-.883-.457-.883-1.017v-19.911c0-.56.397-1.017.883-1.017" fill="#90C67B"/><text font-family="LucidaGrande, Lucida Grande" font-size="4.296" letter-spacing=".017" fill="#FFF" transform="translate(183.258 103.528)"><tspan x="20.504" y="23.039">C</tspan> <tspan x="23.494" y="23.039">ARD</tspan></text><path d="M200.582 121.348c.198 0 .36.186.36.414v5.504c0 .228-.162.414-.36.414h-7.204c-.198 0-.36-.186-.36-.414v-5.504c0-.228.162-.414.36-.414h7.204z" fill="#FFD573"/><text font-family="LucidaGrande, Lucida Grande" font-size="2.4" fill="#FFF" transform="translate(183.258 103.528)"><tspan x="9.325" y="27.753">000 000 000 000</tspan></text></g></g></svg>