<svg width="154" height="40" xmlns="http://www.w3.org/2000/svg"><g fill="none" fill-rule="evenodd"><path d="M66.549 18.285H52.643V7.626h3.188v8.041h2.15v-8.04h3.195v8.04h2.178v-8.04h3.195v10.658zm5.003-10.659h5.98c.996 0 1.761.255 2.295.764s.8 1.139.8 1.89c0 .63-.19 1.17-.57 1.621-.255.3-.626.538-1.115.713.743.184 1.29.5 1.64.949.35.448.525 1.011.525 1.69 0 .552-.125 1.05-.374 1.49-.25.441-.59.79-1.022 1.047-.268.16-.673.277-1.213.35-.72.096-1.197.145-1.432.145h-5.514V7.626zm3.223 4.18h1.389c.498 0 .845-.088 1.04-.265.195-.176.293-.432.293-.767 0-.31-.098-.552-.293-.727-.195-.174-.535-.261-1.019-.261h-1.41v2.02zm0 4.189h1.629c.55 0 .937-.101 1.163-.302.226-.201.338-.472.338-.81a.951.951 0 0 0-.334-.76c-.224-.192-.615-.288-1.174-.288h-1.622v2.16zm20.784-8.369v10.659h-3.004v-5.853l-3.87 5.853h-3.012V7.626h3.011v5.897l3.892-5.897h2.983zm15.87 10.596h-11.74v-2.395h1.064c.597-1.72.896-3.661.896-5.823V7.626h8.666v8.201h1.114v2.395zm-4.308-2.395v-5.583h-2.567v.138c0 1.473-.242 3.288-.726 5.445h3.293zm17.85 2.458h-3.596l-1.24-2.756c-.297-.65-.527-1.055-.692-1.218-.164-.162-.392-.243-.684-.243v4.217h-3.187V7.626h3.187v4.094c.278-.015.494-.117.65-.306.154-.189.396-.732.725-1.628.24-.664.482-1.14.727-1.429.244-.288.641-.495 1.191-.622.55-.126 1.413-.189 2.588-.189V9.8h-.162c-.545 0-.95.107-1.213.32-.263.213-.48.559-.649 1.036-.169.478-.35.834-.546 1.069a2.024 2.024 0 0 1-.8.563c.46.155.862.423 1.205.804.344.38.708.973 1.093 1.777l1.404 2.916zm13.924-10.659v10.659h-3.004v-5.853l-3.87 5.853h-3.012V7.626h3.011v5.897l3.892-5.897h2.983zm14.918 0v10.659h-3.004v-5.853l-3.871 5.853h-3.011V7.626h3.01v5.897l3.893-5.897h2.983zM62.029 32.58h-3.596l-1.241-2.756c-.297-.65-.527-1.055-.691-1.218-.165-.162-.393-.243-.684-.243v4.217h-3.188V21.92h3.188v4.094c.277-.015.493-.117.648-.306.155-.189.397-.732.727-1.628.24-.664.481-1.14.726-1.429.244-.288.642-.496 1.192-.622.55-.126 1.412-.189 2.587-.189v2.254h-.162c-.545 0-.95.107-1.213.32-.263.213-.48.559-.648 1.036-.17.477-.352.834-.547 1.069a2.024 2.024 0 0 1-.8.563c.46.155.862.423 1.206.804.343.38.707.973 1.093 1.777l1.403 2.916zm4.016-10.659h5.31c1.156 0 2.022.284 2.598.851.576.567.864 1.374.864 2.421 0 1.076-.314 1.917-.941 2.523-.628.606-1.586.909-2.874.909h-1.748v3.955h-3.209V21.92zm3.209 4.544h.782c.616 0 1.049-.11 1.298-.33.249-.221.373-.503.373-.848 0-.334-.108-.617-.324-.85-.216-.233-.623-.35-1.22-.35h-.91v2.378zm10.115-4.544h8.56v2.276h-5.358v1.694h4.97v2.174h-4.97v2.1h5.514v2.415h-8.716V21.92zm24.17 10.595H91.797v-2.394h1.065c.597-1.72.895-3.662.895-5.823V21.92h8.666v8.201h1.114v2.394zm-4.309-2.394v-5.583h-2.567v.138c0 1.473-.242 3.288-.726 5.445h3.293zm18.345-8.2v10.658h-3.004v-5.853l-3.871 5.853h-3.011V21.92h3.01v5.897l3.893-5.897h2.983zm4.298 0h9.71v2.631h-3.258v8.027h-3.194v-8.027h-3.258V21.92z" fill="#FFF"/><path d="M151.099 2.454v-.143a2.31 2.31 0 1 0-4.621 0v.143a2.31 2.31 0 0 0 4.621 0z" fill="#D8F939"/><path d="M43.95 18.041L24.616 38.008a5.748 5.748 0 0 1-8.307 0 1.019 1.019 0 0 0-.141-.121L1.732 22.978c-2.306-2.382-2.306-6.228-.017-8.592L15.125.536A1.39 1.39 0 0 1 16.132.11c.382 0 .74.152 1.007.427l4.051 4.185L6.773 19.61a1.258 1.258 0 0 1-1.817.002 1.36 1.36 0 0 1 0-1.879 1.05 1.05 0 0 0 .102-.125l8.935-9.212a1.063 1.063 0 0 0 0-1.47.987.987 0 0 0-1.426 0l-9.038 9.317c-.046.048-.087.1-.123.155-1.162 1.335-1.121 3.398.123 4.683a3.228 3.228 0 0 0 4.665.004l15.135-15.63L27.547 1.1A1.392 1.392 0 0 1 28.555.67c.382 0 .74.152 1.007.428l3.24 3.347 7.909 8.167 3.238 3.344a1.51 1.51 0 0 1 0 2.085zm-11.912-2.166a2.414 2.414 0 0 0 0-3.336 2.233 2.233 0 0 0-3.23 0 2.414 2.414 0 0 0 0 3.336 2.233 2.233 0 0 0 3.23 0z" fill="#D8F939" fill-rule="nonzero"/></g></svg>